# xmcd CD database file
#
# Track frame offsets:
#	150
#	13970
#	32042
#	42572
#	56195
#	69215
#	83920
#	98062
#	110192
#	122545
#	134567
#	147302
#	160130
#	174242
#	187255
#	202055
#	216562
#	230035
#	242607
#	253797
#	266065
#
# Disc length: 3713 seconds
#
# Revision: 7
# Processed by: cddbd v1.5.2PL0 Copyright (c) Steve Scherf et al.
# Submitted via: CDex 1.77
#
DISCID=4a0e7f15
DTITLE=Jazz Greats - Hot Fingers: Jazz Guitar
DYEAR=1998
DGENRE=Jazz
TTITLE0=Lonnie Johnson and Blind Willie Dunn - Hot Fingers
TTITLE1=Quintet Of The Hot Club Of France - Twelfth Year
TTITLE2=Charlie Christian - Guy's Got To Go
TTITLE3=Mezzrow-Ladnier Quintet - If You See Me Comin'
TTITLE4=Eddie Lang - Melody Man's Dream
TTITLE5=Louis Armstrong and His Orchestra - Mahogany Hall Stomp
TTITLE6=Carl Kress and Dick Mcdonough - Stage Fright
TTITLE7=Fats Waller and His Rhythm - Buck Jumpin'
TTITLE8=Al Casey Sextet - How High The Moon
TTITLE9=Sidney Bechet and His New Orleans Feetwarmers - Rose Room
TTITLE10=Benny Goodman Sextet - Boy Meets Goy
TTITLE11=Danish Jam Session - Sweet Sue
TTITLE12=Eddie Durham and His Band - I Want A Little Girl
TTITLE13=Freddy Jenkins and His Harlem Seven - Nothin' But Rhythm
TTITLE14=Six Men And A Girl - Mary Lou Williams Blues
TTITLE15=Mary Lou Williams' Girl Stars - Harmony Grits
TTITLE16=Nat King Cole Trio - What Is This Thing Called Love
TTITLE17=Cozy Cole's Band - Look Here
TTITLE18=George Barnes and Ernie Varner - Swoon Of A Goon
TTITLE19=Louis Armstrong and His Hot Five - Gut Bucket Blues
TTITLE20=Red Norvo and His Swing Octet - Bughouse
EXTD=YEAR: 1998
EXTT0=
EXTT1=
EXTT2=
EXTT3=
EXTT4=
EXTT5=
EXTT6=
EXTT7=
EXTT8=
EXTT9=
EXTT10=
EXTT11=
EXTT12=
EXTT13=
EXTT14=
EXTT15=
EXTT16=
EXTT17=
EXTT18=
EXTT19=
EXTT20=
PLAYORDER=
